Patient4_TMGait_0pt6_02_right_43_GRF.mot
version=1
nRows=51
nColumns=19
inDegrees=no
endheader
time	F1x	F1y	F1z	M1x	M1y	M1z	F2x	F2y	F2z	M2x	M2y	M2z	EC1x	EC1y	EC1z	EC2x	EC2y	EC2z
51.89	-7.0997	774.2708	54.6995	-279.8844	-61.6999	865.5706	-21.9243	6.0437	-5.6227	3.2788	13.019	15.1465	-0.0592	0.0182	-0.0073	-0.0462	0.0165	0.9585
51.9023	-7.1883	774.0648	58.4679	-278.901	-65.1917	863.7694	-14.6954	4.6511	-3.8433	2.4537	8.7872	10.8342	-0.0592	0.0182	-0.0073	-0.0462	0.0165	0.9585
51.9146	-6.9866	773.2596	61.6573	-277.5999	-67.9429	860.7242	-8.6246	3.5708	-2.3459	1.7813	5.2414	7.3334	-0.0592	0.0182	-0.0073	-0.0462	0.0165	0.9585
51.9269	-6.4011	771.7255	64.0585	-275.9894	-69.7189	856.3371	-4.0119	2.834	-1.2065	1.2945	2.5559	4.789	-0.0592	0.0182	-0.0073	-0.0462	0.0165	0.9585
51.9391	-5.3744	769.3435	65.6023	-274.0822	-70.4431	850.5319	-0.84378	2.4179	-0.41816	0.98582	0.71341	3.1709	-0.0592	0.0182	-0.0073	-0.0462	0.0165	0.9585
51.9514	-3.9081	765.9983	66.3956	-271.8795	-70.2321	843.264	1.1067	2.2313	0.075352	0.81644	-0.41722	2.2835	-0.0592	0.0182	-0.0073	-0.0462	0.0165	0.9585
51.9637	-2.034	761.5753	66.5518	-269.3723	-69.2171	834.4705	2.1265	2.1866	0.33802	0.74123	-0.99899	1.9103	-0.0592	0.0182	-0.0073	-0.0462	0.0165	0.9585
51.976	0.20263	755.9731	66.2283	-266.541	-67.574	824.1272	2.5003	2.182	0.43497	0.70983	-1.1974	1.813	-0.0592	0.0182	-0.0073	-0.0462	0.0165	0.9585
51.9883	2.7699	749.1662	65.5412	-263.3825	-65.4375	812.2903	2.4891	2.1068	0.4219	0.67047	-1.1564	1.7465	-0.0592	0.0182	-0.0073	-0.0462	0.0165	0.9585
52.0006	5.6335	741.2848	64.6352	-259.9343	-62.974	799.1619	2.2707	1.862	0.33747	0.57397	-0.97596	1.5217	-0.0592	0.0182	-0.0073	-0.0462	0.0165	0.9585
52.0129	8.7748	732.6774	63.6395	-256.3057	-60.3325	785.1656	1.9996	1.3219	0.21426	0.36733	-0.73813	0.92717	-0.0592	0.0182	-0.0073	-0.0462	0.0165	0.9585
52.0251	12.197	723.9212	62.7103	-252.682	-57.6769	770.9633	1.732	0.39704	0.071805	0.009356	-0.48562	-0.17007	-0.0592	0.0182	-0.0073	-0.0462	0.0165	0.9585
52.0374	15.8924	715.7926	61.9693	-249.3214	-55.1366	757.4097	1.5399	-0.99887	-0.069169	-0.53262	-0.26325	-1.9044	-0.0592	0.0182	-0.0073	-0.0462	0.0165	0.9585
52.0497	19.8477	709.1868	61.5311	-246.523	-52.8314	745.4654	1.4098	-2.8564	-0.19046	-1.257	-0.093658	-4.2386	-0.0592	0.0182	-0.0073	-0.0462	0.0165	0.9585
52.062	24.0392	705.0058	61.4786	-244.5908	-50.8494	736.0786	1.3673	-5.0919	-0.26612	-2.1255	-0.020483	-7.057	-0.0592	0.0182	-0.0073	-0.0462	0.0165	0.9585
52.0743	28.3831	703.9701	61.8892	-243.7673	-49.2878	729.9896	1.3592	-7.3932	-0.2553	-3.0173	-0.076943	-9.931	-0.0592	0.0182	-0.0073	-0.0462	0.0165	0.9585
52.0866	32.7723	706.4387	62.8158	-244.1742	-48.2292	727.556	1.3718	-9.2292	-0.10995	-3.7164	-0.30815	-12.1921	-0.0592	0.0182	-0.0073	-0.0462	0.0165	0.9585
52.0989	37.0871	712.325	64.2463	-245.7811	-47.6951	728.6856	1.3233	-9.6929	0.23861	-3.8627	-0.76231	-12.6871	-0.0592	0.0182	-0.0073	-0.0462	0.0165	0.9585
52.1111	41.229	721.023	66.1017	-248.3842	-47.6375	732.7475	1.1596	-7.5025	0.85231	-2.9432	-1.4813	-9.8128	-0.0592	0.0182	-0.0073	-0.0462	0.0165	0.9585
52.1234	45.1151	731.4545	68.2258	-251.6157	-47.9276	738.6491	0.77145	-0.94909	1.7964	-0.27983	-2.4896	-1.412	-0.0592	0.0182	-0.0073	-0.0462	0.0165	0.9585
52.1357	48.7211	742.0911	70.4238	-254.9501	-48.3857	744.848	0.068394	11.9881	3.0907	4.9275	-3.7617	15.0509	-0.0592	0.0182	-0.0073	-0.0462	0.0165	0.9585
52.148	51.9858	751.0235	72.4417	-257.7294	-48.7858	749.4747	-1.0466	33.401	4.6931	13.5007	-5.1906	42.1998	-0.0592	0.0182	-0.0073	-0.0462	0.0165	0.9585
52.1603	54.8681	756.0578	74.0032	-259.2007	-48.8838	750.3989	-2.6364	64.9452	6.4352	26.0814	-6.5184	82.0798	-0.0592	0.0182	-0.0073	-0.0462	0.0165	0.9585
52.1726	57.2821	754.9032	74.7914	-258.5817	-48.421	745.453	-4.6804	107.0498	7.9822	42.815	-7.3113	135.1773	-0.0592	0.0182	-0.0073	-0.0462	0.0165	0.9585
52.1849	59.1347	745.3935	74.5005	-255.1425	-47.1654	732.6035	-7.1137	157.8205	8.7389	62.9162	-6.8559	199.0318	-0.0592	0.0182	-0.0073	-0.0462	0.0165	0.9585
52.1971	60.2597	725.8393	72.8622	-248.3182	-44.9519	710.3153	-10.106	211.9975	7.9138	84.2635	-4.1523	266.8951	-0.0592	0.0182	-0.0073	-0.0462	0.0165	0.9585
52.2094	60.5084	695.3458	69.7191	-237.82	-41.7293	677.8088	-13.8695	262.1435	4.6111	103.9077	1.7737	329.3095	-0.0592	0.0182	-0.0073	-0.0462	0.0165	0.9585
52.2217	59.6937	654.1787	65.0825	-223.7433	-37.6093	635.4266	-18.4036	304.3837	-0.92262	120.3281	10.5027	381.3032	-0.0592	0.0182	-0.0073	-0.0462	0.0165	0.9585
52.234	57.7069	603.6753	59.1238	-206.5371	-32.8062	584.5173	-23.3903	340.2882	-7.8717	134.1474	20.9689	424.7238	-0.0592	0.0182	-0.0073	-0.0462	0.0165	0.9585
52.2463	54.5729	545.7806	52.1937	-186.8491	-27.6287	526.9986	-28.3193	373.2462	-15.2632	146.7567	31.7892	463.7572	-0.0592	0.0182	-0.0073	-0.0462	0.0165	0.9585
52.2586	50.3839	482.7737	44.6251	-165.437	-22.3272	465.0703	-32.396	406.2183	-21.9613	159.3856	41.3408	502.0147	-0.0592	0.0182	-0.0073	-0.0462	0.0165	0.9585
52.2709	45.2538	417.0451	36.8044	-143.0953	-17.1785	401.0067	-35.0369	441.0476	-27.2847	172.7916	48.5758	541.7933	-0.0592	0.0182	-0.0073	-0.0462	0.0165	0.9585
52.2831	39.3219	351.0433	29.0956	-120.6402	-12.428	337.1157	-35.9187	478.2607	-30.8066	187.1849	52.9275	583.7616	-0.0592	0.0182	-0.0073	-0.0462	0.0165	0.9585
52.2954	32.785	287.1109	21.9127	-98.8545	-8.3532	275.5743	-35.2073	517.3189	-32.8429	202.2936	54.8353	627.4099	-0.0592	0.0182	-0.0073	-0.0462	0.0165	0.9585
52.3077	25.8838	227.4001	15.5753	-78.4651	-5.1395	218.359	-33.2764	556.9098	-33.9646	217.5198	55.1748	671.2996	-0.0592	0.0182	-0.0073	-0.0462	0.0165	0.9585
52.32	18.9779	173.7248	10.3458	-60.0918	-2.8919	167.0971	-30.7464	595.6229	-35.2031	232.1946	55.383	713.9623	-0.0592	0.0182	-0.0073	-0.0462	0.0165	0.9585
52.3323	12.5153	127.4037	6.2942	-44.1946	-1.5215	122.9435	-28.1818	632.3567	-37.3048	245.7866	56.5891	754.2441	-0.0592	0.0182	-0.0073	-0.0462	0.0165	0.9585
52.3446	6.9182	89.0864	3.3946	-31.0049	-0.86692	86.4177	-26.1135	666.321	-40.8526	257.9166	59.6481	791.3814	-0.0592	0.0182	-0.0073	-0.0462	0.0165	0.9585
52.3569	2.497	58.7209	1.4781	-20.5163	-0.67618	57.4112	-24.839	697.0134	-45.6883	268.3835	64.506	824.8793	-0.0592	0.0182	-0.0073	-0.0462	0.0165	0.9585
52.3691	-0.62979	35.682	0.33583	-12.5285	-0.72239	35.3307	-24.4192	724.2367	-51.3735	277.1485	70.6618	854.5763	-0.0592	0.0182	-0.0073	-0.0462	0.0165	0.9585
52.3814	-2.4787	19.0819	-0.26891	-6.7508	-0.80171	19.3495	-24.7363	747.9409	-57.1176	284.2738	77.1796	880.4206	-0.0592	0.0182	-0.0073	-0.0462	0.0165	0.9585
52.3937	-3.225	7.9166	-0.52814	-2.8485	-0.80412	8.5562	-25.5715	767.9328	-62.4422	289.7721	83.4048	902.1627	-0.0592	0.0182	-0.0073	-0.0462	0.0165	0.9585
52.406	-3.1588	1.1098	-0.58166	-0.46053	-0.71212	1.9357	-26.713	783.7597	-66.9963	293.5601	88.8484	919.2333	-0.0592	0.0182	-0.0073	-0.0462	0.0165	0.9585
52.4183	-2.6949	-2.4045	-0.51053	0.77812	-0.59485	-1.5062	-27.9784	794.842	-70.737	295.5069	93.3624	930.894	-0.0592	0.0182	-0.0073	-0.0462	0.0165	0.9585
52.4306	-2.0645	-3.6839	-0.37091	1.2286	-0.489	-2.795	-29.2462	800.9555	-73.5597	295.6154	96.7811	936.8012	-0.0592	0.0182	-0.0073	-0.0462	0.0165	0.9585
52.4429	-1.4522	-3.5894	-0.21344	1.1907	-0.40911	-2.7373	-30.4002	802.3974	-75.4585	294.0853	99.0494	937.1948	-0.0592	0.0182	-0.0073	-0.0462	0.0165	0.9585
52.4551	-0.92155	-2.7748	-0.055585	0.89599	-0.35992	-1.992	-31.4006	799.9528	-76.3789	291.2936	100.098	932.8874	-0.0592	0.0182	-0.0073	-0.0462	0.0165	0.9585
52.4674	-0.52301	-1.6866	0.074302	0.50664	-0.32963	-0.98309	-32.1812	794.6328	-76.3936	287.6854	99.9882	924.9496	-0.0592	0.0182	-0.0073	-0.0462	0.0165	0.9585
52.4797	-0.23339	-0.58542	0.17874	0.11985	-0.31656	0.023557	-32.7125	787.4258	-75.5674	283.6751	98.7932	914.4408	-0.0592	0.0182	-0.0073	-0.0462	0.0165	0.9585
52.492	-0.049266	0.38414	0.25023	-0.21369	-0.31203	0.89494	-32.9249	779.0898	-74.0484	279.5675	96.6632	902.158	-0.0592	0.0182	-0.0073	-0.0462	0.0165	0.9585
52.5043	0.057934	1.1546	0.29484	-0.47401	-0.31239	1.5821	-32.7415	770.1909	-71.9724	275.5701	93.7385	888.702	-0.0592	0.0182	-0.0073	-0.0462	0.0165	0.9585
